<?xml version="1.0" encoding="UTF-8" standalone="no"?>
<!DOCTYPE svg PUBLIC "-//W3C//DTD SVG 1.1//EN"
 "http://www.w3.org/Graphics/SVG/1.1/DTD/svg11.dtd">
<!-- Generated by graphviz version 2.44.0 (20200408.0750)
 -->
<!-- Title: dependency&#45;cruiser output Pages: 1 -->
<svg width="599pt" height="860pt"
 viewBox="0.00 0.00 598.53 860.00" xmlns="http://www.w3.org/2000/svg" xmlns:xlink="http://www.w3.org/1999/xlink">
<g id="graph0" class="graph" transform="scale(1 1) rotate(0) translate(4 856)">
<title>dependency&#45;cruiser output</title>
<polygon fill="white" stroke="transparent" points="-4,4 -4,-856 594.53,-856 594.53,4 -4,4"/>
<g id="clust1" class="cluster">
<title>cluster_client</title>
<path fill="#ffffff" stroke="black" stroke-width="2" d="M20,-8C20,-8 570.53,-8 570.53,-8 576.53,-8 582.53,-14 582.53,-20 582.53,-20 582.53,-832 582.53,-832 582.53,-838 576.53,-844 570.53,-844 570.53,-844 20,-844 20,-844 14,-844 8,-838 8,-832 8,-832 8,-20 8,-20 8,-14 14,-8 20,-8"/>
<text text-anchor="middle" x="295.26" y="-831.9" font-family="Helvetica,sans-Serif" font-weight="bold" font-size="9.00">client</text>
</g>
<g id="clust2" class="cluster">
<title>cluster_client/src</title>
<path fill="#ffffff" stroke="black" stroke-width="2" d="M28,-16C28,-16 562.53,-16 562.53,-16 568.53,-16 574.53,-22 574.53,-28 574.53,-28 574.53,-805 574.53,-805 574.53,-811 568.53,-817 562.53,-817 562.53,-817 28,-817 28,-817 22,-817 16,-811 16,-805 16,-805 16,-28 16,-28 16,-22 22,-16 28,-16"/>
<text text-anchor="middle" x="295.26" y="-804.9" font-family="Helvetica,sans-Serif" font-weight="bold" font-size="9.00">src</text>
</g>
<g id="clust3" class="cluster">
<title>cluster_client/src/components</title>
<path fill="#ffffff" stroke="black" stroke-width="2" d="M98,-34C98,-34 406.03,-34 406.03,-34 412.03,-34 418.03,-40 418.03,-46 418.03,-46 418.03,-526 418.03,-526 418.03,-532 412.03,-538 406.03,-538 406.03,-538 98,-538 98,-538 92,-538 86,-532 86,-526 86,-526 86,-46 86,-46 86,-40 92,-34 98,-34"/>
<text text-anchor="middle" x="252.01" y="-525.9" font-family="Helvetica,sans-Serif" font-weight="bold" font-size="9.00">components</text>
</g>
<g id="clust4" class="cluster">
<title>cluster_client/src/components/layout</title>
<path fill="#ffffff" stroke="black" stroke-width="2" d="M114,-427C114,-427 251.01,-427 251.01,-427 257.01,-427 263.01,-433 263.01,-439 263.01,-439 263.01,-499 263.01,-499 263.01,-505 257.01,-511 251.01,-511 251.01,-511 114,-511 114,-511 108,-511 102,-505 102,-499 102,-499 102,-439 102,-439 102,-433 108,-427 114,-427"/>
<text text-anchor="middle" x="182.5" y="-498.9" font-family="Helvetica,sans-Serif" font-weight="bold" font-size="9.00">layout</text>
</g>
<g id="clust5" class="cluster">
<title>cluster_client/src/components/pages</title>
<path fill="#ffffff" stroke="black" stroke-width="2" d="M106,-42C106,-42 398.03,-42 398.03,-42 404.03,-42 410.03,-48 410.03,-54 410.03,-54 410.03,-315 410.03,-315 410.03,-321 404.03,-327 398.03,-327 398.03,-327 106,-327 106,-327 100,-327 94,-321 94,-315 94,-315 94,-54 94,-54 94,-48 100,-42 106,-42"/>
<text text-anchor="middle" x="252.01" y="-314.9" font-family="Helvetica,sans-Serif" font-weight="bold" font-size="9.00">pages</text>
</g>
<g id="clust6" class="cluster">
<title>cluster_client/src/components/pages/home</title>
<path fill="#ffffff" stroke="black" stroke-width="2" d="M114,-186C114,-186 390.03,-186 390.03,-186 396.03,-186 402.03,-192 402.03,-198 402.03,-198 402.03,-227 402.03,-227 402.03,-233 396.03,-239 390.03,-239 390.03,-239 114,-239 114,-239 108,-239 102,-233 102,-227 102,-227 102,-198 102,-198 102,-192 108,-186 114,-186"/>
<text text-anchor="middle" x="252.01" y="-226.9" font-family="Helvetica,sans-Serif" font-weight="bold" font-size="9.00">home</text>
</g>
<g id="clust7" class="cluster">
<title>cluster_client/src/components/pages/questions</title>
<path fill="#ffffff" stroke="black" stroke-width="2" d="M114,-247C114,-247 160,-247 160,-247 166,-247 172,-253 172,-259 172,-259 172,-288 172,-288 172,-294 166,-300 160,-300 160,-300 114,-300 114,-300 108,-300 102,-294 102,-288 102,-288 102,-259 102,-259 102,-253 108,-247 114,-247"/>
<text text-anchor="middle" x="137" y="-287.9" font-family="Helvetica,sans-Serif" font-weight="bold" font-size="9.00">questions</text>
</g>
<g id="clust8" class="cluster">
<title>cluster_client/src/components/pages/quiz</title>
<path fill="#ffffff" stroke="black" stroke-width="2" d="M114,-50C114,-50 363.27,-50 363.27,-50 369.27,-50 375.27,-56 375.27,-62 375.27,-62 375.27,-166 375.27,-166 375.27,-172 369.27,-178 363.27,-178 363.27,-178 114,-178 114,-178 108,-178 102,-172 102,-166 102,-166 102,-62 102,-62 102,-56 108,-50 114,-50"/>
<text text-anchor="middle" x="238.64" y="-165.9" font-family="Helvetica,sans-Serif" font-weight="bold" font-size="9.00">quiz</text>
</g>
<g id="clust9" class="cluster">
<title>cluster_client/src/components/shared</title>
<path fill="#ffffff" stroke="black" stroke-width="2" d="M192,-335C192,-335 264.01,-335 264.01,-335 270.01,-335 276.01,-341 276.01,-347 276.01,-347 276.01,-407 276.01,-407 276.01,-413 270.01,-419 264.01,-419 264.01,-419 192,-419 192,-419 186,-419 180,-413 180,-407 180,-407 180,-347 180,-347 180,-341 186,-335 192,-335"/>
<text text-anchor="middle" x="228.01" y="-406.9" font-family="Helvetica,sans-Serif" font-weight="bold" font-size="9.00">shared</text>
</g>
<g id="clust10" class="cluster">
<title>cluster_client/src/handlers</title>
<path fill="#ffffff" stroke="black" stroke-width="2" d="M296.01,-546C296.01,-546 384.53,-546 384.53,-546 390.53,-546 396.53,-552 396.53,-558 396.53,-558 396.53,-711 396.53,-711 396.53,-717 390.53,-723 384.53,-723 384.53,-723 296.01,-723 296.01,-723 290.01,-723 284.01,-717 284.01,-711 284.01,-711 284.01,-558 284.01,-558 284.01,-552 290.01,-546 296.01,-546"/>
<text text-anchor="middle" x="340.27" y="-710.9" font-family="Helvetica,sans-Serif" font-weight="bold" font-size="9.00">handlers</text>
</g>
<g id="clust11" class="cluster">
<title>cluster_client/src/init</title>
<path fill="#ffffff" stroke="black" stroke-width="2" d="M438.03,-233C438.03,-233 554.53,-233 554.53,-233 560.53,-233 566.53,-239 566.53,-245 566.53,-245 566.53,-305 566.53,-305 566.53,-311 560.53,-317 554.53,-317 554.53,-317 438.03,-317 438.03,-317 432.03,-317 426.03,-311 426.03,-305 426.03,-305 426.03,-245 426.03,-245 426.03,-239 432.03,-233 438.03,-233"/>
<text text-anchor="middle" x="496.28" y="-304.9" font-family="Helvetica,sans-Serif" font-weight="bold" font-size="9.00">init</text>
</g>
<g id="clust12" class="cluster">
<title>cluster_client/src/logic</title>
<path fill="#ffffff" stroke="black" stroke-width="2" d="M306.02,-737C306.02,-737 484.53,-737 484.53,-737 490.53,-737 496.53,-743 496.53,-749 496.53,-749 496.53,-778 496.53,-778 496.53,-784 490.53,-790 484.53,-790 484.53,-790 306.02,-790 306.02,-790 300.02,-790 294.02,-784 294.02,-778 294.02,-778 294.02,-749 294.02,-749 294.02,-743 300.02,-737 306.02,-737"/>
<text text-anchor="middle" x="395.27" y="-777.9" font-family="Helvetica,sans-Serif" font-weight="bold" font-size="9.00">logic</text>
</g>
<!-- client/src/components/layout/footer.js -->
<g id="node1" class="node">
<title>client/src/components/layout/footer.js</title>
<g id="a_node1"><a xlink:href="../client/src/components/layout/footer.js" xlink:title="footer.js">
<path fill="#ffffcc" stroke="black" d="M248.81,-484.3C248.81,-484.3 207.21,-484.3 207.21,-484.3 204.11,-484.3 201.01,-481.2 201.01,-478.1 201.01,-478.1 201.01,-471.9 201.01,-471.9 201.01,-468.8 204.11,-465.7 207.21,-465.7 207.21,-465.7 248.81,-465.7 248.81,-465.7 251.91,-465.7 255.01,-468.8 255.01,-471.9 255.01,-471.9 255.01,-478.1 255.01,-478.1 255.01,-481.2 251.91,-484.3 248.81,-484.3"/>
<text text-anchor="middle" x="228.01" y="-472.3" font-family="Helvetica,sans-Serif" font-size="9.00">footer.js</text>
</a>
</g>
</g>
<!-- client/src/components/layout/navbar.js -->
<g id="node2" class="node">
<title>client/src/components/layout/navbar.js</title>
<g id="a_node2"><a xlink:href="../client/src/components/layout/navbar.js" xlink:title="navbar.js">
<path fill="#ffffcc" stroke="black" d="M248.81,-453.3C248.81,-453.3 207.21,-453.3 207.21,-453.3 204.11,-453.3 201.01,-450.2 201.01,-447.1 201.01,-447.1 201.01,-440.9 201.01,-440.9 201.01,-437.8 204.11,-434.7 207.21,-434.7 207.21,-434.7 248.81,-434.7 248.81,-434.7 251.91,-434.7 255.01,-437.8 255.01,-440.9 255.01,-440.9 255.01,-447.1 255.01,-447.1 255.01,-450.2 251.91,-453.3 248.81,-453.3"/>
<text text-anchor="middle" x="228.01" y="-441.3" font-family="Helvetica,sans-Serif" font-size="9.00">navbar.js</text>
</a>
</g>
</g>
<!-- client/src/components/layout/page.js -->
<g id="node3" class="node">
<title>client/src/components/layout/page.js</title>
<g id="a_node3"><a xlink:href="../client/src/components/layout/page.js" xlink:title="page.js">
<path fill="#ffffcc" stroke="black" d="M157.8,-453.3C157.8,-453.3 116.2,-453.3 116.2,-453.3 113.1,-453.3 110,-450.2 110,-447.1 110,-447.1 110,-440.9 110,-440.9 110,-437.8 113.1,-434.7 116.2,-434.7 116.2,-434.7 157.8,-434.7 157.8,-434.7 160.9,-434.7 164,-437.8 164,-440.9 164,-440.9 164,-447.1 164,-447.1 164,-450.2 160.9,-453.3 157.8,-453.3"/>
<text text-anchor="middle" x="137" y="-441.3" font-family="Helvetica,sans-Serif" font-size="9.00">page.js</text>
</a>
</g>
</g>
<!-- client/src/components/layout/page.js&#45;&gt;client/src/components/layout/footer.js -->
<g id="edge1" class="edge">
<title>client/src/components/layout/page.js&#45;&gt;client/src/components/layout/footer.js</title>
<path fill="none" stroke="#000000" stroke-width="2" stroke-opacity="0.200000" d="M164.19,-453.42C169.42,-455.29 174.88,-457.22 180,-459 184.8,-460.67 189.88,-462.42 194.86,-464.13"/>
<polygon fill="#000000" fill-opacity="0.200000" stroke="#000000" stroke-width="2" stroke-opacity="0.200000" points="194.27,-466.15 200.63,-466.1 195.63,-462.17 194.27,-466.15"/>
</g>
<!-- client/src/components/layout/page.js&#45;&gt;client/src/components/layout/navbar.js -->
<g id="edge2" class="edge">
<title>client/src/components/layout/page.js&#45;&gt;client/src/components/layout/navbar.js</title>
<path fill="none" stroke="#000000" stroke-width="2" stroke-opacity="0.200000" d="M164.22,-444C173.82,-444 184.79,-444 194.85,-444"/>
<polygon fill="#000000" fill-opacity="0.200000" stroke="#000000" stroke-width="2" stroke-opacity="0.200000" points="194.97,-446.1 200.97,-444 194.97,-441.9 194.97,-446.1"/>
</g>
<!-- client/src/components/pages/home/index.js -->
<g id="node4" class="node">
<title>client/src/components/pages/home/index.js</title>
<g id="a_node4"><a xlink:href="../client/src/components/pages/home/index.js" xlink:title="index.js">
<path fill="#ffffcc" stroke="black" d="M157.8,-212.3C157.8,-212.3 116.2,-212.3 116.2,-212.3 113.1,-212.3 110,-209.2 110,-206.1 110,-206.1 110,-199.9 110,-199.9 110,-196.8 113.1,-193.7 116.2,-193.7 116.2,-193.7 157.8,-193.7 157.8,-193.7 160.9,-193.7 164,-196.8 164,-199.9 164,-199.9 164,-206.1 164,-206.1 164,-209.2 160.9,-212.3 157.8,-212.3"/>
<text text-anchor="middle" x="137" y="-200.3" font-family="Helvetica,sans-Serif" font-size="9.00">index.js</text>
</a>
</g>
</g>
<!-- client/src/components/shared/input&#45;greeting.js -->
<g id="node5" class="node">
<title>client/src/components/shared/input&#45;greeting.js</title>
<g id="a_node5"><a xlink:href="../client/src/components/shared/input-greeting.js" xlink:title="input&#45;greeting.js">
<path fill="#ffffcc" stroke="black" d="M261.82,-392.3C261.82,-392.3 194.19,-392.3 194.19,-392.3 191.09,-392.3 187.99,-389.2 187.99,-386.1 187.99,-386.1 187.99,-379.9 187.99,-379.9 187.99,-376.8 191.09,-373.7 194.19,-373.7 194.19,-373.7 261.82,-373.7 261.82,-373.7 264.92,-373.7 268.02,-376.8 268.02,-379.9 268.02,-379.9 268.02,-386.1 268.02,-386.1 268.02,-389.2 264.92,-392.3 261.82,-392.3"/>
<text text-anchor="middle" x="228.01" y="-380.3" font-family="Helvetica,sans-Serif" font-size="9.00">input&#45;greeting.js</text>
</a>
</g>
</g>
<!-- client/src/components/pages/home/index.js&#45;&gt;client/src/components/shared/input&#45;greeting.js -->
<g id="edge3" class="edge">
<title>client/src/components/pages/home/index.js&#45;&gt;client/src/components/shared/input&#45;greeting.js</title>
<path fill="none" stroke="#000000" stroke-width="2" stroke-opacity="0.200000" d="M149,-212.57C156.94,-220.2 167.08,-231.63 172,-244 182.13,-269.45 163.34,-345.26 180,-367 180.96,-368.26 182.03,-369.42 183.18,-370.49"/>
<polygon fill="#000000" fill-opacity="0.200000" stroke="#000000" stroke-width="2" stroke-opacity="0.200000" points="181.96,-372.19 188,-374.18 184.51,-368.86 181.96,-372.19"/>
</g>
<!-- client/src/components/shared/restart&#45;btn.js -->
<g id="node6" class="node">
<title>client/src/components/shared/restart&#45;btn.js</title>
<g id="a_node6"><a xlink:href="../client/src/components/shared/restart-btn.js" xlink:title="restart&#45;btn.js">
<path fill="#ffffcc" stroke="black" d="M254.81,-361.3C254.81,-361.3 201.2,-361.3 201.2,-361.3 198.1,-361.3 195,-358.2 195,-355.1 195,-355.1 195,-348.9 195,-348.9 195,-345.8 198.1,-342.7 201.2,-342.7 201.2,-342.7 254.81,-342.7 254.81,-342.7 257.91,-342.7 261.01,-345.8 261.01,-348.9 261.01,-348.9 261.01,-355.1 261.01,-355.1 261.01,-358.2 257.91,-361.3 254.81,-361.3"/>
<text text-anchor="middle" x="228.01" y="-349.3" font-family="Helvetica,sans-Serif" font-size="9.00">restart&#45;btn.js</text>
</a>
</g>
</g>
<!-- client/src/components/pages/home/index.js&#45;&gt;client/src/components/shared/restart&#45;btn.js -->
<g id="edge4" class="edge">
<title>client/src/components/pages/home/index.js&#45;&gt;client/src/components/shared/restart&#45;btn.js</title>
<path fill="none" stroke="#000000" stroke-width="2" stroke-opacity="0.200000" d="M146.74,-212.31C154.02,-220.33 164.38,-232.41 172,-244 192.62,-275.36 211.21,-315.46 220.59,-336.89"/>
<polygon fill="#000000" fill-opacity="0.200000" stroke="#000000" stroke-width="2" stroke-opacity="0.200000" points="218.78,-337.99 223.09,-342.66 222.63,-336.32 218.78,-337.99"/>
</g>
<!-- client/src/components/pages/home/instructions.js -->
<g id="node7" class="node">
<title>client/src/components/pages/home/instructions.js</title>
<g id="a_node7"><a xlink:href="../client/src/components/pages/home/instructions.js" xlink:title="instructions.js">
<path fill="#ffffcc" stroke="black" d="M256.81,-212.3C256.81,-212.3 199.2,-212.3 199.2,-212.3 196.1,-212.3 193,-209.2 193,-206.1 193,-206.1 193,-199.9 193,-199.9 193,-196.8 196.1,-193.7 199.2,-193.7 199.2,-193.7 256.81,-193.7 256.81,-193.7 259.91,-193.7 263.01,-196.8 263.01,-199.9 263.01,-199.9 263.01,-206.1 263.01,-206.1 263.01,-209.2 259.91,-212.3 256.81,-212.3"/>
<text text-anchor="middle" x="228.01" y="-200.3" font-family="Helvetica,sans-Serif" font-size="9.00">instructions.js</text>
</a>
</g>
</g>
<!-- client/src/components/pages/home/index.js&#45;&gt;client/src/components/pages/home/instructions.js -->
<g id="edge5" class="edge">
<title>client/src/components/pages/home/index.js&#45;&gt;client/src/components/pages/home/instructions.js</title>
<path fill="none" stroke="#000000" stroke-width="2" stroke-opacity="0.200000" d="M164.22,-203C171.19,-203 178.89,-203 186.43,-203"/>
<polygon fill="#000000" fill-opacity="0.200000" stroke="#000000" stroke-width="2" stroke-opacity="0.200000" points="186.71,-205.1 192.71,-203 186.71,-200.9 186.71,-205.1"/>
</g>
<!-- client/src/init/state.js -->
<g id="node9" class="node">
<title>client/src/init/state.js</title>
<g id="a_node9"><a xlink:href="../client/src/init/state.js" xlink:title="state.js">
<path fill="#ffffcc" stroke="black" d="M481.83,-290.3C481.83,-290.3 440.23,-290.3 440.23,-290.3 437.13,-290.3 434.03,-287.2 434.03,-284.1 434.03,-284.1 434.03,-277.9 434.03,-277.9 434.03,-274.8 437.13,-271.7 440.23,-271.7 440.23,-271.7 481.83,-271.7 481.83,-271.7 484.93,-271.7 488.03,-274.8 488.03,-277.9 488.03,-277.9 488.03,-284.1 488.03,-284.1 488.03,-287.2 484.93,-290.3 481.83,-290.3"/>
<text text-anchor="middle" x="461.03" y="-278.3" font-family="Helvetica,sans-Serif" font-size="9.00">state.js</text>
</a>
</g>
</g>
<!-- client/src/components/shared/input&#45;greeting.js&#45;&gt;client/src/init/state.js -->
<g id="edge23" class="edge">
<title>client/src/components/shared/input&#45;greeting.js&#45;&gt;client/src/init/state.js</title>
<path fill="none" stroke="#000000" stroke-width="2" stroke-opacity="0.200000" d="M258.02,-373.68C264.02,-371.6 270.25,-369.32 276.01,-367 334.61,-343.41 401.31,-310.73 436.07,-293.22"/>
<polygon fill="#000000" fill-opacity="0.200000" stroke="#000000" stroke-width="2" stroke-opacity="0.200000" points="437.37,-294.92 441.78,-290.34 435.47,-291.17 437.37,-294.92"/>
</g>
<!-- client/src/handlers/change&#45;greeting.js -->
<g id="node19" class="node">
<title>client/src/handlers/change&#45;greeting.js</title>
<g id="a_node19"><a xlink:href="../client/src/handlers/change-greeting.js" xlink:title="change&#45;greeting.js">
<path fill="#ffffcc" stroke="black" d="M379.09,-696.3C379.09,-696.3 301.45,-696.3 301.45,-696.3 298.35,-696.3 295.25,-693.2 295.25,-690.1 295.25,-690.1 295.25,-683.9 295.25,-683.9 295.25,-680.8 298.35,-677.7 301.45,-677.7 301.45,-677.7 379.09,-677.7 379.09,-677.7 382.19,-677.7 385.29,-680.8 385.29,-683.9 385.29,-683.9 385.29,-690.1 385.29,-690.1 385.29,-693.2 382.19,-696.3 379.09,-696.3"/>
<text text-anchor="middle" x="340.27" y="-684.3" font-family="Helvetica,sans-Serif" font-size="9.00">change&#45;greeting.js</text>
</a>
</g>
</g>
<!-- client/src/components/shared/input&#45;greeting.js&#45;&gt;client/src/handlers/change&#45;greeting.js -->
<g id="edge22" class="edge">
<title>client/src/components/shared/input&#45;greeting.js&#45;&gt;client/src/handlers/change&#45;greeting.js</title>
<path fill="none" stroke="#000000" stroke-width="2" stroke-opacity="0.200000" d="M245.68,-392.5C256.45,-399.64 269.61,-410.5 276.01,-424 287.78,-448.81 267.16,-649.32 284.01,-671 285.7,-673.17 287.67,-675.06 289.83,-676.71"/>
<polygon fill="#000000" fill-opacity="0.200000" stroke="#000000" stroke-width="2" stroke-opacity="0.200000" points="289.01,-678.67 295.2,-680.11 291.26,-675.13 289.01,-678.67"/>
</g>
<!-- client/src/logic/reverse.js -->
<g id="node20" class="node">
<title>client/src/logic/reverse.js</title>
<g id="a_node20"><a xlink:href="../client/src/logic/reverse.js" xlink:title="reverse.js">
<path fill="#ffffcc" stroke="black" d="M482.33,-763.3C482.33,-763.3 439.73,-763.3 439.73,-763.3 436.63,-763.3 433.53,-760.2 433.53,-757.1 433.53,-757.1 433.53,-750.9 433.53,-750.9 433.53,-747.8 436.63,-744.7 439.73,-744.7 439.73,-744.7 482.33,-744.7 482.33,-744.7 485.43,-744.7 488.53,-747.8 488.53,-750.9 488.53,-750.9 488.53,-757.1 488.53,-757.1 488.53,-760.2 485.43,-763.3 482.33,-763.3"/>
<text text-anchor="middle" x="461.03" y="-751.3" font-family="Helvetica,sans-Serif" font-size="9.00">reverse.js</text>
</a>
</g>
</g>
<!-- client/src/components/shared/input&#45;greeting.js&#45;&gt;client/src/logic/reverse.js -->
<g id="edge24" class="edge">
<title>client/src/components/shared/input&#45;greeting.js&#45;&gt;client/src/logic/reverse.js</title>
<path fill="none" stroke="#000000" stroke-width="2" stroke-opacity="0.200000" d="M245.7,-392.48C256.48,-399.62 269.65,-410.48 276.01,-424 283.16,-439.18 272.57,-713.72 284.01,-726 304.41,-747.89 388.83,-732.47 418.03,-739 422.29,-739.95 426.71,-741.21 431.01,-742.6"/>
<polygon fill="#000000" fill-opacity="0.200000" stroke="#000000" stroke-width="2" stroke-opacity="0.200000" points="430.42,-744.62 436.78,-744.55 431.77,-740.64 430.42,-744.62"/>
</g>
<!-- client/src/handlers/restart&#45;quiz.js -->
<g id="node21" class="node">
<title>client/src/handlers/restart&#45;quiz.js</title>
<g id="a_node21"><a xlink:href="../client/src/handlers/restart-quiz.js" xlink:title="restart&#45;quiz.js">
<path fill="#ffffcc" stroke="black" d="M369.07,-665.3C369.07,-665.3 311.47,-665.3 311.47,-665.3 308.37,-665.3 305.27,-662.2 305.27,-659.1 305.27,-659.1 305.27,-652.9 305.27,-652.9 305.27,-649.8 308.37,-646.7 311.47,-646.7 311.47,-646.7 369.07,-646.7 369.07,-646.7 372.17,-646.7 375.27,-649.8 375.27,-652.9 375.27,-652.9 375.27,-659.1 375.27,-659.1 375.27,-662.2 372.17,-665.3 369.07,-665.3"/>
<text text-anchor="middle" x="340.27" y="-653.3" font-family="Helvetica,sans-Serif" font-size="9.00">restart&#45;quiz.js</text>
</a>
</g>
</g>
<!-- client/src/components/shared/restart&#45;btn.js&#45;&gt;client/src/handlers/restart&#45;quiz.js -->
<g id="edge25" class="edge">
<title>client/src/components/shared/restart&#45;btn.js&#45;&gt;client/src/handlers/restart&#45;quiz.js</title>
<path fill="none" stroke="#000000" stroke-width="2" stroke-opacity="0.200000" d="M261.23,-357.18C266.99,-359.56 272.32,-363.01 276.01,-368 293.97,-392.32 265.49,-616.1 284.01,-640 287.91,-645.03 293.3,-648.55 299.18,-651"/>
<polygon fill="#000000" fill-opacity="0.200000" stroke="#000000" stroke-width="2" stroke-opacity="0.200000" points="298.85,-653.1 305.2,-653.1 300.23,-649.14 298.85,-653.1"/>
</g>
<!-- client/src/components/pages/home/number&#45;of&#45;questions.js -->
<g id="node8" class="node">
<title>client/src/components/pages/home/number&#45;of&#45;questions.js</title>
<g id="a_node8"><a xlink:href="../client/src/components/pages/home/number-of-questions.js" xlink:title="number&#45;of&#45;questions.js">
<path fill="#ffffcc" stroke="black" d="M387.58,-212.3C387.58,-212.3 292.96,-212.3 292.96,-212.3 289.86,-212.3 286.76,-209.2 286.76,-206.1 286.76,-206.1 286.76,-199.9 286.76,-199.9 286.76,-196.8 289.86,-193.7 292.96,-193.7 292.96,-193.7 387.58,-193.7 387.58,-193.7 390.68,-193.7 393.78,-196.8 393.78,-199.9 393.78,-199.9 393.78,-206.1 393.78,-206.1 393.78,-209.2 390.68,-212.3 387.58,-212.3"/>
<text text-anchor="middle" x="340.27" y="-200.3" font-family="Helvetica,sans-Serif" font-size="9.00">number&#45;of&#45;questions.js</text>
</a>
</g>
</g>
<!-- client/src/components/pages/home/instructions.js&#45;&gt;client/src/components/pages/home/number&#45;of&#45;questions.js -->
<g id="edge6" class="edge">
<title>client/src/components/pages/home/instructions.js&#45;&gt;client/src/components/pages/home/number&#45;of&#45;questions.js</title>
<path fill="none" stroke="#000000" stroke-width="2" stroke-opacity="0.200000" d="M263.29,-203C268.68,-203 274.37,-203 280.13,-203"/>
<polygon fill="#000000" fill-opacity="0.200000" stroke="#000000" stroke-width="2" stroke-opacity="0.200000" points="280.38,-205.1 286.38,-203 280.38,-200.9 280.38,-205.1"/>
</g>
<!-- client/src/components/pages/home/number&#45;of&#45;questions.js&#45;&gt;client/src/init/state.js -->
<g id="edge7" class="edge">
<title>client/src/components/pages/home/number&#45;of&#45;questions.js&#45;&gt;client/src/init/state.js</title>
<path fill="none" stroke="#000000" stroke-width="2" stroke-opacity="0.200000" d="M352.58,-212.36C368.38,-225.2 398.28,-248.53 426.03,-265 428.24,-266.31 430.57,-267.6 432.94,-268.84"/>
<polygon fill="#000000" fill-opacity="0.200000" stroke="#000000" stroke-width="2" stroke-opacity="0.200000" points="432.18,-270.8 438.48,-271.63 434.07,-267.05 432.18,-270.8"/>
</g>
<!-- client/src/components/pages/questions/index.js -->
<g id="node10" class="node">
<title>client/src/components/pages/questions/index.js</title>
<g id="a_node10"><a xlink:href="../client/src/components/pages/questions/index.js" xlink:title="index.js">
<path fill="#ffffcc" stroke="black" d="M157.8,-273.3C157.8,-273.3 116.2,-273.3 116.2,-273.3 113.1,-273.3 110,-270.2 110,-267.1 110,-267.1 110,-260.9 110,-260.9 110,-257.8 113.1,-254.7 116.2,-254.7 116.2,-254.7 157.8,-254.7 157.8,-254.7 160.9,-254.7 164,-257.8 164,-260.9 164,-260.9 164,-267.1 164,-267.1 164,-270.2 160.9,-273.3 157.8,-273.3"/>
<text text-anchor="middle" x="137" y="-261.3" font-family="Helvetica,sans-Serif" font-size="9.00">index.js</text>
</a>
</g>
</g>
<!-- client/src/components/pages/questions/index.js&#45;&gt;client/src/components/shared/input&#45;greeting.js -->
<g id="edge8" class="edge">
<title>client/src/components/pages/questions/index.js&#45;&gt;client/src/components/shared/input&#45;greeting.js</title>
<path fill="none" stroke="#000000" stroke-width="2" stroke-opacity="0.200000" d="M139.21,-273.43C142.27,-293.5 152.18,-340.77 180,-367 181.29,-368.22 182.68,-369.35 184.15,-370.39"/>
<polygon fill="#000000" fill-opacity="0.200000" stroke="#000000" stroke-width="2" stroke-opacity="0.200000" points="183.16,-372.24 189.37,-373.61 185.36,-368.67 183.16,-372.24"/>
</g>
<!-- client/src/components/pages/quiz/back&#45;btn.js -->
<g id="node11" class="node">
<title>client/src/components/pages/quiz/back&#45;btn.js</title>
<g id="a_node11"><a xlink:href="../client/src/components/pages/quiz/back-btn.js" xlink:title="back&#45;btn.js">
<path fill="#ffffcc" stroke="black" d="M251.31,-151.3C251.31,-151.3 204.7,-151.3 204.7,-151.3 201.6,-151.3 198.5,-148.2 198.5,-145.1 198.5,-145.1 198.5,-138.9 198.5,-138.9 198.5,-135.8 201.6,-132.7 204.7,-132.7 204.7,-132.7 251.31,-132.7 251.31,-132.7 254.42,-132.7 257.52,-135.8 257.52,-138.9 257.52,-138.9 257.52,-145.1 257.52,-145.1 257.52,-148.2 254.42,-151.3 251.31,-151.3"/>
<text text-anchor="middle" x="228.01" y="-139.3" font-family="Helvetica,sans-Serif" font-size="9.00">back&#45;btn.js</text>
</a>
</g>
</g>
<!-- client/src/handlers/back&#45;question&#45;btn.js -->
<g id="node12" class="node">
<title>client/src/handlers/back&#45;question&#45;btn.js</title>
<g id="a_node12"><a xlink:href="../client/src/handlers/back-question-btn.js" xlink:title="back&#45;question&#45;btn.js">
<path fill="#ffffcc" stroke="black" d="M382.09,-634.3C382.09,-634.3 298.45,-634.3 298.45,-634.3 295.35,-634.3 292.25,-631.2 292.25,-628.1 292.25,-628.1 292.25,-621.9 292.25,-621.9 292.25,-618.8 295.35,-615.7 298.45,-615.7 298.45,-615.7 382.09,-615.7 382.09,-615.7 385.19,-615.7 388.29,-618.8 388.29,-621.9 388.29,-621.9 388.29,-628.1 388.29,-628.1 388.29,-631.2 385.19,-634.3 382.09,-634.3"/>
<text text-anchor="middle" x="340.27" y="-622.3" font-family="Helvetica,sans-Serif" font-size="9.00">back&#45;question&#45;btn.js</text>
</a>
</g>
</g>
<!-- client/src/components/pages/quiz/back&#45;btn.js&#45;&gt;client/src/handlers/back&#45;question&#45;btn.js -->
<g id="edge9" class="edge">
<title>client/src/components/pages/quiz/back&#45;btn.js&#45;&gt;client/src/handlers/back&#45;question&#45;btn.js</title>
<path fill="none" stroke="#000000" stroke-width="2" stroke-opacity="0.200000" d="M245.74,-151.47C256.53,-158.6 269.7,-169.46 276.01,-183 286.01,-204.45 269.61,-590.21 284.01,-609 284.83,-610.07 285.72,-611.07 286.66,-612.01"/>
<polygon fill="#000000" fill-opacity="0.200000" stroke="#000000" stroke-width="2" stroke-opacity="0.200000" points="285.84,-614.05 291.83,-616.18 288.48,-610.78 285.84,-614.05"/>
</g>
<!-- client/src/handlers/back&#45;question&#45;btn.js&#45;&gt;client/src/init/state.js -->
<g id="edge26" class="edge">
<title>client/src/handlers/back&#45;question&#45;btn.js&#45;&gt;client/src/init/state.js</title>
<path fill="none" stroke="#000000" stroke-width="2" stroke-opacity="0.200000" d="M388.54,-624.32C399.59,-621.89 410.36,-617.29 418.03,-609 460.72,-562.83 461.1,-355.51 460.32,-296.64"/>
<polygon fill="#000000" fill-opacity="0.200000" stroke="#000000" stroke-width="2" stroke-opacity="0.200000" points="462.42,-296.48 460.23,-290.51 458.22,-296.54 462.42,-296.48"/>
</g>
<!-- client/src/components/pages/quiz/index.js -->
<g id="node13" class="node">
<title>client/src/components/pages/quiz/index.js</title>
<g id="a_node13"><a xlink:href="../client/src/components/pages/quiz/index.js" xlink:title="index.js">
<path fill="#ffffcc" stroke="black" d="M157.8,-129.3C157.8,-129.3 116.2,-129.3 116.2,-129.3 113.1,-129.3 110,-126.2 110,-123.1 110,-123.1 110,-116.9 110,-116.9 110,-113.8 113.1,-110.7 116.2,-110.7 116.2,-110.7 157.8,-110.7 157.8,-110.7 160.9,-110.7 164,-113.8 164,-116.9 164,-116.9 164,-123.1 164,-123.1 164,-126.2 160.9,-129.3 157.8,-129.3"/>
<text text-anchor="middle" x="137" y="-117.3" font-family="Helvetica,sans-Serif" font-size="9.00">index.js</text>
</a>
</g>
</g>
<!-- client/src/components/pages/quiz/index.js&#45;&gt;client/src/components/shared/restart&#45;btn.js -->
<g id="edge11" class="edge">
<title>client/src/components/pages/quiz/index.js&#45;&gt;client/src/components/shared/restart&#45;btn.js</title>
<path fill="none" stroke="#000000" stroke-width="2" stroke-opacity="0.200000" d="M144.44,-129.33C152.31,-141.22 165.38,-162.67 172,-183 180.19,-208.16 172.96,-216.49 180,-242 189.8,-277.5 208.58,-316.6 219.19,-337.28"/>
<polygon fill="#000000" fill-opacity="0.200000" stroke="#000000" stroke-width="2" stroke-opacity="0.200000" points="217.33,-338.24 221.96,-342.6 221.06,-336.31 217.33,-338.24"/>
</g>
<!-- client/src/components/pages/quiz/index.js&#45;&gt;client/src/init/state.js -->
<g id="edge10" class="edge">
<title>client/src/components/pages/quiz/index.js&#45;&gt;client/src/init/state.js</title>
<path fill="none" stroke="#000000" stroke-width="2" stroke-opacity="0.200000" d="M164.12,-113.47C167.12,-111.78 169.87,-109.66 172,-107 187.44,-87.72 161.47,-68.34 180,-52 194.4,-39.3 406.14,-38.54 418.03,-50 435.24,-66.59 412.84,-245.06 426.03,-265 426.91,-266.33 427.93,-267.56 429.06,-268.68"/>
<polygon fill="#000000" fill-opacity="0.200000" stroke="#000000" stroke-width="2" stroke-opacity="0.200000" points="427.89,-270.43 433.88,-272.54 430.51,-267.15 427.89,-270.43"/>
</g>
<!-- client/src/components/pages/quiz/index.js&#45;&gt;client/src/components/pages/quiz/back&#45;btn.js -->
<g id="edge12" class="edge">
<title>client/src/components/pages/quiz/index.js&#45;&gt;client/src/components/pages/quiz/back&#45;btn.js</title>
<path fill="none" stroke="#000000" stroke-width="2" stroke-opacity="0.200000" d="M164.22,-126.48C173.06,-128.67 183.05,-131.14 192.43,-133.45"/>
<polygon fill="#000000" fill-opacity="0.200000" stroke="#000000" stroke-width="2" stroke-opacity="0.200000" points="192.16,-135.55 198.48,-134.95 193.16,-131.47 192.16,-135.55"/>
</g>
<!-- client/src/components/pages/quiz/next&#45;btn.js -->
<g id="node14" class="node">
<title>client/src/components/pages/quiz/next&#45;btn.js</title>
<g id="a_node14"><a xlink:href="../client/src/components/pages/quiz/next-btn.js" xlink:title="next&#45;btn.js">
<path fill="#ffffcc" stroke="black" d="M250.32,-76.3C250.32,-76.3 205.7,-76.3 205.7,-76.3 202.6,-76.3 199.49,-73.2 199.49,-70.1 199.49,-70.1 199.49,-63.9 199.49,-63.9 199.49,-60.8 202.6,-57.7 205.7,-57.7 205.7,-57.7 250.32,-57.7 250.32,-57.7 253.42,-57.7 256.52,-60.8 256.52,-63.9 256.52,-63.9 256.52,-70.1 256.52,-70.1 256.52,-73.2 253.42,-76.3 250.32,-76.3"/>
<text text-anchor="middle" x="228.01" y="-64.3" font-family="Helvetica,sans-Serif" font-size="9.00">next&#45;btn.js</text>
</a>
</g>
</g>
<!-- client/src/components/pages/quiz/index.js&#45;&gt;client/src/components/pages/quiz/next&#45;btn.js -->
<g id="edge13" class="edge">
<title>client/src/components/pages/quiz/index.js&#45;&gt;client/src/components/pages/quiz/next&#45;btn.js</title>
<path fill="none" stroke="#000000" stroke-width="2" stroke-opacity="0.200000" d="M164.03,-112.91C166.98,-111.32 169.73,-109.37 172,-107 179.78,-98.88 172.07,-90.98 180,-83 183.76,-79.22 188.44,-76.33 193.38,-74.13"/>
<polygon fill="#000000" fill-opacity="0.200000" stroke="#000000" stroke-width="2" stroke-opacity="0.200000" points="194.43,-75.97 199.26,-71.84 192.91,-72.06 194.43,-75.97"/>
</g>
<!-- client/src/components/pages/quiz/render&#45;quiz.js -->
<g id="node15" class="node">
<title>client/src/components/pages/quiz/render&#45;quiz.js</title>
<g id="a_node15"><a xlink:href="../client/src/components/pages/quiz/render-quiz.js" xlink:title="render&#45;quiz.js">
<path fill="#ffffcc" stroke="black" d="M256.81,-107.3C256.81,-107.3 199.2,-107.3 199.2,-107.3 196.1,-107.3 193,-104.2 193,-101.1 193,-101.1 193,-94.9 193,-94.9 193,-91.8 196.1,-88.7 199.2,-88.7 199.2,-88.7 256.81,-88.7 256.81,-88.7 259.91,-88.7 263.01,-91.8 263.01,-94.9 263.01,-94.9 263.01,-101.1 263.01,-101.1 263.01,-104.2 259.91,-107.3 256.81,-107.3"/>
<text text-anchor="middle" x="228.01" y="-95.3" font-family="Helvetica,sans-Serif" font-size="9.00">render&#45;quiz.js</text>
</a>
</g>
</g>
<!-- client/src/components/pages/quiz/index.js&#45;&gt;client/src/components/pages/quiz/render&#45;quiz.js -->
<g id="edge14" class="edge">
<title>client/src/components/pages/quiz/index.js&#45;&gt;client/src/components/pages/quiz/render&#45;quiz.js</title>
<path fill="none" stroke="#000000" stroke-width="2" stroke-opacity="0.200000" d="M164.22,-113.52C171.33,-111.76 179.2,-109.82 186.88,-107.92"/>
<polygon fill="#000000" fill-opacity="0.200000" stroke="#000000" stroke-width="2" stroke-opacity="0.200000" points="187.39,-109.95 192.71,-106.48 186.38,-105.88 187.39,-109.95"/>
</g>
<!-- client/src/components/pages/quiz/score.js -->
<g id="node16" class="node">
<title>client/src/components/pages/quiz/score.js</title>
<g id="a_node16"><a xlink:href="../client/src/components/pages/quiz/score.js" xlink:title="score.js">
<path fill="#ffffcc" stroke="black" d="M361.07,-129.3C361.07,-129.3 319.47,-129.3 319.47,-129.3 316.37,-129.3 313.27,-126.2 313.27,-123.1 313.27,-123.1 313.27,-116.9 313.27,-116.9 313.27,-113.8 316.37,-110.7 319.47,-110.7 319.47,-110.7 361.07,-110.7 361.07,-110.7 364.17,-110.7 367.27,-113.8 367.27,-116.9 367.27,-116.9 367.27,-123.1 367.27,-123.1 367.27,-126.2 364.17,-129.3 361.07,-129.3"/>
<text text-anchor="middle" x="340.27" y="-117.3" font-family="Helvetica,sans-Serif" font-size="9.00">score.js</text>
</a>
</g>
</g>
<!-- client/src/components/pages/quiz/index.js&#45;&gt;client/src/components/pages/quiz/score.js -->
<g id="edge15" class="edge">
<title>client/src/components/pages/quiz/index.js&#45;&gt;client/src/components/pages/quiz/score.js</title>
<path fill="none" stroke="#000000" stroke-width="2" stroke-opacity="0.200000" d="M164.31,-120C201.03,-120 267.57,-120 307.16,-120"/>
<polygon fill="#000000" fill-opacity="0.200000" stroke="#000000" stroke-width="2" stroke-opacity="0.200000" points="307.27,-122.1 313.27,-120 307.27,-117.9 307.27,-122.1"/>
</g>
<!-- client/src/components/pages/quiz/next&#45;btn.js&#45;&gt;client/src/init/state.js -->
<g id="edge17" class="edge">
<title>client/src/components/pages/quiz/next&#45;btn.js&#45;&gt;client/src/init/state.js</title>
<path fill="none" stroke="#000000" stroke-width="2" stroke-opacity="0.200000" d="M256.57,-59.99C298.21,-51.24 376.66,-42.27 418.03,-86 431.71,-100.46 414.99,-248.43 426.03,-265 426.91,-266.33 427.94,-267.55 429.08,-268.67"/>
<polygon fill="#000000" fill-opacity="0.200000" stroke="#000000" stroke-width="2" stroke-opacity="0.200000" points="427.91,-270.43 433.91,-272.53 430.53,-267.14 427.91,-270.43"/>
</g>
<!-- client/src/handlers/next&#45;question&#45;btn.js -->
<g id="node17" class="node">
<title>client/src/handlers/next&#45;question&#45;btn.js</title>
<g id="a_node17"><a xlink:href="../client/src/handlers/next-question-btn.js" xlink:title="next&#45;question&#45;btn.js">
<path fill="#ffffcc" stroke="black" d="M381.09,-572.3C381.09,-572.3 299.45,-572.3 299.45,-572.3 296.35,-572.3 293.25,-569.2 293.25,-566.1 293.25,-566.1 293.25,-559.9 293.25,-559.9 293.25,-556.8 296.35,-553.7 299.45,-553.7 299.45,-553.7 381.09,-553.7 381.09,-553.7 384.19,-553.7 387.29,-556.8 387.29,-559.9 387.29,-559.9 387.29,-566.1 387.29,-566.1 387.29,-569.2 384.19,-572.3 381.09,-572.3"/>
<text text-anchor="middle" x="340.27" y="-560.3" font-family="Helvetica,sans-Serif" font-size="9.00">next&#45;question&#45;btn.js</text>
</a>
</g>
</g>
<!-- client/src/components/pages/quiz/next&#45;btn.js&#45;&gt;client/src/handlers/next&#45;question&#45;btn.js -->
<g id="edge16" class="edge">
<title>client/src/components/pages/quiz/next&#45;btn.js&#45;&gt;client/src/handlers/next&#45;question&#45;btn.js</title>
<path fill="none" stroke="#000000" stroke-width="2" stroke-opacity="0.200000" d="M256.77,-70.65C264.14,-72.99 271.34,-76.81 276.01,-83 286.67,-97.12 282.06,-224.42 284.01,-242 297.13,-360.39 326.07,-501.28 335.92,-547.49"/>
<polygon fill="#000000" fill-opacity="0.200000" stroke="#000000" stroke-width="2" stroke-opacity="0.200000" points="333.92,-548.18 337.23,-553.61 338.02,-547.3 333.92,-548.18"/>
</g>
<!-- client/src/components/pages/quiz/render&#45;quiz.js&#45;&gt;client/src/init/state.js -->
<g id="edge19" class="edge">
<title>client/src/components/pages/quiz/render&#45;quiz.js&#45;&gt;client/src/init/state.js</title>
<path fill="none" stroke="#000000" stroke-width="2" stroke-opacity="0.200000" d="M263.13,-94.03C311.62,-89.24 396.94,-84.18 418.03,-105 430.69,-117.5 416.12,-250.21 426.03,-265 426.92,-266.33 427.95,-267.55 429.08,-268.67"/>
<polygon fill="#000000" fill-opacity="0.200000" stroke="#000000" stroke-width="2" stroke-opacity="0.200000" points="427.92,-270.42 433.92,-272.52 430.53,-267.14 427.92,-270.42"/>
</g>
<!-- client/src/components/pages/quiz/render&#45;quiz.js&#45;&gt;client/src/components/pages/quiz/score.js -->
<g id="edge20" class="edge">
<title>client/src/components/pages/quiz/render&#45;quiz.js&#45;&gt;client/src/components/pages/quiz/score.js</title>
<path fill="none" stroke="#000000" stroke-width="2" stroke-opacity="0.200000" d="M263.29,-104.84C277.21,-107.62 293.22,-110.81 306.94,-113.55"/>
<polygon fill="#000000" fill-opacity="0.200000" stroke="#000000" stroke-width="2" stroke-opacity="0.200000" points="306.77,-115.66 313.07,-114.77 307.59,-111.54 306.77,-115.66"/>
</g>
<!-- client/src/handlers/change&#45;answer.js -->
<g id="node18" class="node">
<title>client/src/handlers/change&#45;answer.js</title>
<g id="a_node18"><a xlink:href="../client/src/handlers/change-answer.js" xlink:title="change&#45;answer.js">
<path fill="#ffffcc" stroke="black" d="M377.08,-603.3C377.08,-603.3 303.46,-603.3 303.46,-603.3 300.36,-603.3 297.26,-600.2 297.26,-597.1 297.26,-597.1 297.26,-590.9 297.26,-590.9 297.26,-587.8 300.36,-584.7 303.46,-584.7 303.46,-584.7 377.08,-584.7 377.08,-584.7 380.18,-584.7 383.28,-587.8 383.28,-590.9 383.28,-590.9 383.28,-597.1 383.28,-597.1 383.28,-600.2 380.18,-603.3 377.08,-603.3"/>
<text text-anchor="middle" x="340.27" y="-591.3" font-family="Helvetica,sans-Serif" font-size="9.00">change&#45;answer.js</text>
</a>
</g>
</g>
<!-- client/src/components/pages/quiz/render&#45;quiz.js&#45;&gt;client/src/handlers/change&#45;answer.js -->
<g id="edge18" class="edge">
<title>client/src/components/pages/quiz/render&#45;quiz.js&#45;&gt;client/src/handlers/change&#45;answer.js</title>
<path fill="none" stroke="#000000" stroke-width="2" stroke-opacity="0.200000" d="M253.82,-107.37C262.39,-111.92 271.07,-118.34 276.01,-127 288.42,-148.77 268.78,-558.1 284.01,-578 286.14,-580.78 288.71,-583.09 291.58,-585.02"/>
<polygon fill="#000000" fill-opacity="0.200000" stroke="#000000" stroke-width="2" stroke-opacity="0.200000" points="290.76,-586.97 297.01,-588.09 292.82,-583.31 290.76,-586.97"/>
</g>
<!-- client/src/components/pages/quiz/score.js&#45;&gt;client/src/init/state.js -->
<g id="edge21" class="edge">
<title>client/src/components/pages/quiz/score.js&#45;&gt;client/src/init/state.js</title>
<path fill="none" stroke="#000000" stroke-width="2" stroke-opacity="0.200000" d="M359.74,-129.47C377.97,-139.91 404.95,-158.52 418.03,-183 435.27,-215.3 404.93,-235.07 426.03,-265 426.79,-266.08 427.64,-267.09 428.57,-268.03"/>
<polygon fill="#000000" fill-opacity="0.200000" stroke="#000000" stroke-width="2" stroke-opacity="0.200000" points="427.74,-270.06 433.72,-272.21 430.38,-266.8 427.74,-270.06"/>
</g>
<!-- client/src/handlers/next&#45;question&#45;btn.js&#45;&gt;client/src/init/state.js -->
<g id="edge30" class="edge">
<title>client/src/handlers/next&#45;question&#45;btn.js&#45;&gt;client/src/init/state.js</title>
<path fill="none" stroke="#000000" stroke-width="2" stroke-opacity="0.200000" d="M345.22,-553.62C362.59,-512.38 432.21,-347.05 453.69,-296.05"/>
<polygon fill="#000000" fill-opacity="0.200000" stroke="#000000" stroke-width="2" stroke-opacity="0.200000" points="455.67,-296.76 456.06,-290.42 451.8,-295.13 455.67,-296.76"/>
</g>
<!-- client/src/handlers/change&#45;answer.js&#45;&gt;client/src/init/state.js -->
<g id="edge27" class="edge">
<title>client/src/handlers/change&#45;answer.js&#45;&gt;client/src/init/state.js</title>
<path fill="none" stroke="#000000" stroke-width="2" stroke-opacity="0.200000" d="M383.67,-594.17C396.34,-592.07 409.18,-587.44 418.03,-578 456.69,-536.74 459.98,-351.74 460.09,-296.58"/>
<polygon fill="#000000" fill-opacity="0.200000" stroke="#000000" stroke-width="2" stroke-opacity="0.200000" points="462.19,-296.51 460.09,-290.51 457.99,-296.51 462.19,-296.51"/>
</g>
<!-- client/src/handlers/change&#45;greeting.js&#45;&gt;client/src/init/state.js -->
<g id="edge28" class="edge">
<title>client/src/handlers/change&#45;greeting.js&#45;&gt;client/src/init/state.js</title>
<path fill="none" stroke="#000000" stroke-width="2" stroke-opacity="0.200000" d="M385.46,-687.07C397.61,-684.85 409.71,-680.18 418.03,-671 443.61,-642.77 456.56,-365.88 459.41,-296.64"/>
<polygon fill="#000000" fill-opacity="0.200000" stroke="#000000" stroke-width="2" stroke-opacity="0.200000" points="461.51,-296.68 459.66,-290.6 457.32,-296.51 461.51,-296.68"/>
</g>
<!-- client/src/handlers/change&#45;greeting.js&#45;&gt;client/src/logic/reverse.js -->
<g id="edge29" class="edge">
<title>client/src/handlers/change&#45;greeting.js&#45;&gt;client/src/logic/reverse.js</title>
<path fill="none" stroke="#000000" stroke-width="2" stroke-opacity="0.200000" d="M359.75,-696.45C375.41,-704.56 398.39,-716.69 418.03,-728 425.37,-732.23 433.3,-737.07 440.27,-741.41"/>
<polygon fill="#000000" fill-opacity="0.200000" stroke="#000000" stroke-width="2" stroke-opacity="0.200000" points="439.19,-743.21 445.39,-744.62 441.43,-739.66 439.19,-743.21"/>
</g>
<!-- client/src/handlers/restart&#45;quiz.js&#45;&gt;client/src/init/state.js -->
<g id="edge31" class="edge">
<title>client/src/handlers/restart&#45;quiz.js&#45;&gt;client/src/init/state.js</title>
<path fill="none" stroke="#000000" stroke-width="2" stroke-opacity="0.200000" d="M375.47,-657.33C390.61,-656.03 407.37,-651.65 418.03,-640 441.57,-614.26 455.9,-362.38 459.26,-296.63"/>
<polygon fill="#000000" fill-opacity="0.200000" stroke="#000000" stroke-width="2" stroke-opacity="0.200000" points="461.36,-296.63 459.57,-290.53 457.17,-296.42 461.36,-296.63"/>
</g>
<!-- client/src/init/index.js -->
<g id="node22" class="node">
<title>client/src/init/index.js</title>
<g id="a_node22"><a xlink:href="../client/src/init/index.js" xlink:title="index.js">
<path fill="#ffffcc" stroke="black" d="M481.83,-259.3C481.83,-259.3 440.23,-259.3 440.23,-259.3 437.13,-259.3 434.03,-256.2 434.03,-253.1 434.03,-253.1 434.03,-246.9 434.03,-246.9 434.03,-243.8 437.13,-240.7 440.23,-240.7 440.23,-240.7 481.83,-240.7 481.83,-240.7 484.93,-240.7 488.03,-243.8 488.03,-246.9 488.03,-246.9 488.03,-253.1 488.03,-253.1 488.03,-256.2 484.93,-259.3 481.83,-259.3"/>
<text text-anchor="middle" x="461.03" y="-247.3" font-family="Helvetica,sans-Serif" font-size="9.00">index.js</text>
</a>
</g>
</g>
<!-- client/src/init/router.js -->
<g id="node23" class="node">
<title>client/src/init/router.js</title>
<g id="a_node23"><a xlink:href="../client/src/init/router.js" xlink:title="router.js">
<path fill="#ffffcc" stroke="black" d="M552.33,-259.3C552.33,-259.3 510.73,-259.3 510.73,-259.3 507.63,-259.3 504.53,-256.2 504.53,-253.1 504.53,-253.1 504.53,-246.9 504.53,-246.9 504.53,-243.8 507.63,-240.7 510.73,-240.7 510.73,-240.7 552.33,-240.7 552.33,-240.7 555.43,-240.7 558.53,-243.8 558.53,-246.9 558.53,-246.9 558.53,-253.1 558.53,-253.1 558.53,-256.2 555.43,-259.3 552.33,-259.3"/>
<text text-anchor="middle" x="531.53" y="-247.3" font-family="Helvetica,sans-Serif" font-size="9.00">router.js</text>
</a>
</g>
</g>
<!-- client/src/init/index.js&#45;&gt;client/src/init/router.js -->
<g id="edge32" class="edge">
<title>client/src/init/index.js&#45;&gt;client/src/init/router.js</title>
<path fill="none" stroke="#000000" stroke-width="2" stroke-opacity="0.200000" d="M488.31,-250C491.62,-250 495.02,-250 498.4,-250"/>
<polygon fill="#000000" fill-opacity="0.200000" stroke="#000000" stroke-width="2" stroke-opacity="0.200000" points="498.42,-252.1 504.42,-250 498.42,-247.9 498.42,-252.1"/>
</g>
<!-- client/src/routes.js -->
<g id="node24" class="node">
<title>client/src/routes.js</title>
<g id="a_node24"><a xlink:href="../client/src/routes.js" xlink:title="routes.js">
<path fill="#ffffcc" stroke="black" d="M71.8,-212.3C71.8,-212.3 30.2,-212.3 30.2,-212.3 27.1,-212.3 24,-209.2 24,-206.1 24,-206.1 24,-199.9 24,-199.9 24,-196.8 27.1,-193.7 30.2,-193.7 30.2,-193.7 71.8,-193.7 71.8,-193.7 74.9,-193.7 78,-196.8 78,-199.9 78,-199.9 78,-206.1 78,-206.1 78,-209.2 74.9,-212.3 71.8,-212.3"/>
<text text-anchor="middle" x="51" y="-200.3" font-family="Helvetica,sans-Serif" font-size="9.00">routes.js</text>
</a>
</g>
</g>
<!-- client/src/init/router.js&#45;&gt;client/src/routes.js -->
<g id="edge33" class="edge">
<title>client/src/init/router.js&#45;&gt;client/src/routes.js</title>
<path fill="none" stroke="#000000" stroke-width="2" stroke-opacity="0.200000" d="M528.59,-240.42C521.2,-206.45 491.33,-90.93 418.03,-38 389.97,-17.75 375.87,-25 341.27,-25 227.01,-25 227.01,-25 227.01,-25 163.58,-25 132.17,-3.51 86,-47 65.67,-66.14 56.28,-151.77 53.2,-187.38"/>
<polygon fill="#000000" fill-opacity="0.200000" stroke="#000000" stroke-width="2" stroke-opacity="0.200000" points="51.11,-187.27 52.7,-193.42 55.29,-187.62 51.11,-187.27"/>
</g>
<!-- client/src/routes.js&#45;&gt;client/src/components/layout/page.js -->
<g id="edge35" class="edge">
<title>client/src/routes.js&#45;&gt;client/src/components/layout/page.js</title>
<path fill="none" stroke="#000000" stroke-width="2" stroke-opacity="0.200000" d="M55.15,-212.39C61.1,-230.12 74.45,-269.74 86,-303 101.87,-348.69 121.11,-402.52 130.42,-428.47"/>
<polygon fill="#000000" fill-opacity="0.200000" stroke="#000000" stroke-width="2" stroke-opacity="0.200000" points="128.56,-429.5 132.56,-434.44 132.51,-428.08 128.56,-429.5"/>
</g>
<!-- client/src/routes.js&#45;&gt;client/src/components/pages/home/index.js -->
<g id="edge36" class="edge">
<title>client/src/routes.js&#45;&gt;client/src/components/pages/home/index.js</title>
<path fill="none" stroke="#000000" stroke-width="2" stroke-opacity="0.200000" d="M78.12,-203C86.18,-203 95.15,-203 103.58,-203"/>
<polygon fill="#000000" fill-opacity="0.200000" stroke="#000000" stroke-width="2" stroke-opacity="0.200000" points="103.9,-205.1 109.9,-203 103.9,-200.9 103.9,-205.1"/>
</g>
<!-- client/src/routes.js&#45;&gt;client/src/components/pages/questions/index.js -->
<g id="edge37" class="edge">
<title>client/src/routes.js&#45;&gt;client/src/components/pages/questions/index.js</title>
<path fill="none" stroke="#000000" stroke-width="2" stroke-opacity="0.200000" d="M58.34,-212.4C64.56,-221.03 74.71,-233.7 86,-242 91.5,-246.04 97.86,-249.55 104.16,-252.51"/>
<polygon fill="#000000" fill-opacity="0.200000" stroke="#000000" stroke-width="2" stroke-opacity="0.200000" points="103.57,-254.54 109.9,-255.07 105.27,-250.71 103.57,-254.54"/>
</g>
<!-- client/src/routes.js&#45;&gt;client/src/components/pages/quiz/index.js -->
<g id="edge38" class="edge">
<title>client/src/routes.js&#45;&gt;client/src/components/pages/quiz/index.js</title>
<path fill="none" stroke="#000000" stroke-width="2" stroke-opacity="0.200000" d="M61.64,-193.48C76.45,-178.84 104.88,-150.75 121.98,-133.86"/>
<polygon fill="#000000" fill-opacity="0.200000" stroke="#000000" stroke-width="2" stroke-opacity="0.200000" points="123.68,-135.12 126.48,-129.41 120.73,-132.13 123.68,-135.12"/>
</g>
<!-- client/src/logic/reverse.spec.js -->
<g id="node25" class="node">
<title>client/src/logic/reverse.spec.js</title>
<g id="a_node25"><a xlink:href="../client/src/logic/reverse.spec.js" xlink:title="reverse.spec.js">
<path fill="#ffffcc" stroke="black" d="M372.08,-763.3C372.08,-763.3 308.46,-763.3 308.46,-763.3 305.36,-763.3 302.26,-760.2 302.26,-757.1 302.26,-757.1 302.26,-750.9 302.26,-750.9 302.26,-747.8 305.36,-744.7 308.46,-744.7 308.46,-744.7 372.08,-744.7 372.08,-744.7 375.18,-744.7 378.28,-747.8 378.28,-750.9 378.28,-750.9 378.28,-757.1 378.28,-757.1 378.28,-760.2 375.18,-763.3 372.08,-763.3"/>
<text text-anchor="middle" x="340.27" y="-751.3" font-family="Helvetica,sans-Serif" font-size="9.00">reverse.spec.js</text>
</a>
</g>
</g>
<!-- client/src/logic/reverse.spec.js&#45;&gt;client/src/logic/reverse.js -->
<g id="edge34" class="edge">
<title>client/src/logic/reverse.spec.js&#45;&gt;client/src/logic/reverse.js</title>
<path fill="none" stroke="#000000" stroke-width="2" stroke-opacity="0.200000" d="M378.52,-754C394.11,-754 412.08,-754 427.18,-754"/>
<polygon fill="#000000" fill-opacity="0.200000" stroke="#000000" stroke-width="2" stroke-opacity="0.200000" points="427.45,-756.1 433.45,-754 427.45,-751.9 427.45,-756.1"/>
</g>
</g>
</svg>
